# xmcd
#
# Track frame offsets:
#	183
#	12205
#	24138
#	36978
#	55848
#	68498
#	80783
#	92523
#	101328
#	113138
#	124938
#	139040
#	150258
#	162668
#
# Disc length: 2450 seconds
#
# Revision: 0
# Processed by: cddbd v1.4PL0 Copyright (c) Steve Scherf et al.
# Submitted via: audiograbber 1.80
#
DISCID=a609900e
DTITLE=Turner Ike&Tina - Proud Mary
DYEAR=1900
DGENRE=
TTITLE0=Proud Mary
TTITLE1=Knock On Wood
TTITLE2=Get Back
TTITLE3=Ode To Billy Joe
TTITLE4=Shame,Shame,Shame
TTITLE5=Ya Ya
TTITLE6=Somethig`s Got A Hold On Me
TTITLE7=The Locomotion
TTITLE8=When I Lost My Baby
TTITLE9=Louie Louie
TTITLE10=Lean On ME
TTITLE11=Ain`t That A Shame
TTITLE12=Stagger Lee
TTITLE13=That`s The City
EXTD=Karussell Musik&Video GMBH,Hamburg
EXTT0=
EXTT1=
EXTT2=
EXTT3=
EXTT4=
EXTT5=
EXTT6=
EXTT7=
EXTT8=
EXTT9=
EXTT10=
EXTT11=
EXTT12=
EXTT13=
PLAYORDER=
